<?xml version="1.0" standalone="no"?>
<!DOCTYPE svg PUBLIC "-//W3C//DTD SVG 20010904//EN"
 "http://www.w3.org/TR/2001/REC-SVG-20010904/DTD/svg10.dtd">
<svg version="1.0" xmlns="http://www.w3.org/2000/svg"
 width="512.000000pt" height="512.000000pt" viewBox="0 0 512.000000 512.000000"
 preserveAspectRatio="xMidYMid meet">

<g transform="translate(0.000000,512.000000) scale(0.100000,-0.100000)"
fill="#000000" stroke="none">
<path d="M1752 4137 l-792 -352 3 -695 3 -695 26 -98 c72 -261 220 -500 463
-742 243 -243 619 -512 1018 -729 l87 -48 88 48 c393 213 773 485 1017 729
243 242 391 481 463 742 l26 98 4 695 3 695 -787 349 c-432 192 -796 351 -808
352 -12 2 -364 -149 -814 -349z m1455 -279 l634 -282 -3 -575 c-4 -563 -4
-578 -26 -649 -102 -333 -398 -661 -892 -987 -159 -105 -343 -215 -359 -215
-7 0 -63 30 -125 67 -647 386 -1011 753 -1128 1135 -22 71 -22 86 -26 648 l-3
575 633 282 c348 155 639 282 647 282 7 1 299 -126 648 -281z"/>
<path d="M2663 2888 l-263 -263 -105 105 -105 105 -113 -113 -112 -112 218
-217 217 -218 377 377 378 378 -110 110 c-60 60 -112 110 -115 110 -3 0 -123
-118 -267 -262z"/>
</g>
</svg>
